<?xml version="1.0" encoding="iso-8859-1"?>
<!-- Uploaded to: SVG Repo, www.svgrepo.com, Generator: SVG Repo Mixer Tools -->
<svg fill="#000000" height="800px" width="800px" version="1.1" id="Layer_1" xmlns="http://www.w3.org/2000/svg" xmlns:xlink="http://www.w3.org/1999/xlink" 
	 viewBox="0 0 491.52 491.52" xml:space="preserve">
<g>
	<g>
		<polygon points="295.285,333.8 226.84,402.24 196.24,371.64 181.76,386.12 226.84,431.2 309.765,348.28 		"/>
	</g>
</g>
<g>
	<g>
		<path d="M491.52,0H0v327.68h145.554c-7.893,15.382-12.434,32.756-12.434,51.2c0,62.11,50.53,112.64,112.64,112.64
			S358.4,440.99,358.4,378.88c0-18.444-4.542-35.818-12.434-51.2H491.52V0z M451.14,20.48L245.76,173.025L40.384,20.48H451.14z
			 M20.48,31.205l147.702,109.708L20.48,292.284V31.205z M245.76,471.04c-50.815,0-92.16-41.345-92.16-92.16
			s41.345-92.16,92.16-92.16s92.16,41.345,92.16,92.16S296.575,471.04,245.76,471.04z M332.581,307.2
			c-20.677-25.001-51.919-40.96-86.821-40.96s-66.143,15.959-86.821,40.96H34.539l150.233-153.965l60.988,45.3l60.992-45.302
			L456.982,307.2H332.581z M471.04,292.283L323.342,140.911L471.04,31.208V292.283z"/>
	</g>
</g>
</svg>