<?xml version="1.0" encoding="utf-8"?><!-- Uploaded to: SVG Repo, www.svgrepo.com, Generator: SVG Repo Mixer Tools -->
<svg width="800px" height="800px" viewBox="0 0 128 128" fill="none" xmlns="http://www.w3.org/2000/svg">
<path fill-rule="evenodd" clip-rule="evenodd" d="M10.7879 16.3304C10.576 15.3923 11.2893 14.5 12.251 14.5H115.749C116.711 14.5 117.424 15.3923 117.212 16.3304L110.388 46.5507C110.13 47.6905 109.118 48.5 107.949 48.5H20.0509C18.8824 48.5 17.8697 47.6905 17.6123 46.5507L10.7879 16.3304ZM12.251 15.5C11.9304 15.5 11.6927 15.7974 11.7633 16.1101L18.5878 46.3304C18.7422 47.0143 19.3498 47.5 20.0509 47.5H107.949C108.65 47.5 109.258 47.0143 109.412 46.3304L116.237 16.1101C116.307 15.7974 116.07 15.5 115.749 15.5H12.251Z" fill="#000000"/>
<path fill-rule="evenodd" clip-rule="evenodd" d="M8.067 15.5535C7.71187 13.9892 8.9009 12.5 10.505 12.5H117.495C119.099 12.5 120.288 13.9892 119.933 15.5535L112.618 47.7749C112.256 49.3688 110.839 50.5 109.205 50.5H18.7953C17.1608 50.5 15.744 49.3688 15.3821 47.7749L8.067 15.5535ZM10.505 13.5C9.54252 13.5 8.8291 14.3935 9.04218 15.3321L16.3573 47.5535C16.6158 48.692 17.6278 49.5 18.7953 49.5H109.205C110.372 49.5 111.384 48.692 111.643 47.5535L118.958 15.3321C119.171 14.3935 118.457 13.5 117.495 13.5H10.505Z" fill="#000000"/>
<path fill-rule="evenodd" clip-rule="evenodd" d="M44.5 90C44.5 88.6193 45.6193 87.5 47 87.5H81C82.3807 87.5 83.5 88.6193 83.5 90V110C83.5 111.381 82.3807 112.5 81 112.5H47C45.6193 112.5 44.5 111.381 44.5 110V90ZM47 88.5C46.1716 88.5 45.5 89.1716 45.5 90V110C45.5 110.828 46.1716 111.5 47 111.5H81C81.8284 111.5 82.5 110.828 82.5 110V90C82.5 89.1716 81.8284 88.5 81 88.5H47Z" fill="#000000"/>
<path fill-rule="evenodd" clip-rule="evenodd" d="M20.5 56C20.5 54.6193 21.6193 53.5 23 53.5H105C106.381 53.5 107.5 54.6193 107.5 56V84C107.5 85.3807 106.381 86.5 105 86.5H23C21.6193 86.5 20.5 85.3807 20.5 84V56ZM23 54.5C22.1716 54.5 21.5 55.1716 21.5 56V84C21.5 84.8284 22.1716 85.5 23 85.5H105C105.828 85.5 106.5 84.8284 106.5 84V56C106.5 55.1716 105.828 54.5 105 54.5H23Z" fill="#000000"/>
<path fill-rule="evenodd" clip-rule="evenodd" d="M16.5 53C16.5 51.067 18.067 49.5 20 49.5H108C109.933 49.5 111.5 51.067 111.5 53V113C111.5 114.933 109.933 116.5 108 116.5H20C18.067 116.5 16.5 114.933 16.5 113V53ZM20 50.5C18.6193 50.5 17.5 51.6193 17.5 53V113C17.5 114.381 18.6193 115.5 20 115.5H108C109.381 115.5 110.5 114.381 110.5 113V53C110.5 51.6193 109.381 50.5 108 50.5H20Z" fill="#000000"/>
</svg>