<?xml version="1.0" encoding="iso-8859-1"?>
<!-- Uploaded to: SVG Repo, www.svgrepo.com, Generator: SVG Repo Mixer Tools -->
<!DOCTYPE svg PUBLIC "-//W3C//DTD SVG 1.1//EN" "http://www.w3.org/Graphics/SVG/1.1/DTD/svg11.dtd">
<svg fill="#000000" version="1.1" id="Capa_1" xmlns="http://www.w3.org/2000/svg" xmlns:xlink="http://www.w3.org/1999/xlink" 
	 width="800px" height="800px" viewBox="0 0 94.268 94.268"
	 xml:space="preserve">
<g>
	<path d="M67.535,94.268H26.731c-2.501,0-4.535-2.035-4.535-4.535V4.535C22.196,2.034,24.23,0,26.731,0h40.805
		c2.501,0,4.535,2.034,4.535,4.535v85.198C72.071,92.232,70.036,94.268,67.535,94.268z M23.196,88.758v0.975
		c0,1.949,1.586,3.535,3.535,3.535h40.805c1.949,0,3.535-1.586,3.535-3.535V4.535C71.071,2.586,69.485,1,67.536,1H26.731
		c-1.949,0-3.535,1.586-3.535,3.535V88.758z M45.473,24.553c-1.087,0-1.78-1.003-2.239-1.667c-1.161-1.675-1.818-4.457-0.749-6.313
		c0.59-1.023,1.663-1.671,2.799-1.688h0.035c0.474,0,0.91,0.16,1.269,0.302c-0.067-0.812,0.33-1.592,0.738-2.062
		c0.503-0.592,1.326-1.012,2.045-1.041l0.466-0.02l0.053,0.464c0.082,0.755-0.176,1.56-0.707,2.205
		c-0.033,0.04-0.068,0.079-0.104,0.118c0.118-0.006,0.233-0.003,0.353,0.008c0.455,0.019,1.666,0.191,2.461,1.353l0.285,0.417
		l-0.422,0.281c-0.258,0.162-1.025,0.725-1.016,1.764c0.012,1.334,1.102,1.811,1.227,1.86l0.438,0.177l-0.149,0.449
		c-0.09,0.281-0.349,1.009-0.855,1.752c-0.491,0.717-1.102,1.607-2.159,1.627h-0.003c-0.503,0-0.816-0.136-1.094-0.256
		c-0.258-0.111-0.463-0.199-0.809-0.199c-0.368,0-0.595,0.096-0.857,0.208c-0.269,0.114-0.572,0.243-1.002,0.261
		C45.475,24.553,45.474,24.553,45.473,24.553z M45.319,15.385l-0.019,0.5c-0.787,0.012-1.533,0.467-1.948,1.188
		c-0.918,1.592-0.141,4.025,0.704,5.244c0.433,0.627,0.895,1.238,1.359,1.238c0.266-0.011,0.444-0.087,0.67-0.183
		c0.302-0.128,0.678-0.288,1.249-0.288c0.554,0,0.915,0.156,1.205,0.281c0.233,0.102,0.401,0.174,0.655,0.174
		c0.529-0.01,0.902-0.5,1.378-1.191c0.28-0.41,0.471-0.813,0.591-1.111c-0.549-0.347-1.412-1.12-1.425-2.554
		c-0.011-1.11,0.562-1.853,1.017-2.265c-0.509-0.468-1.121-0.549-1.396-0.561c-0.073-0.007-0.117-0.009-0.161-0.009
		c-0.387,0-0.788,0.158-1.143,0.298c-0.322,0.127-0.601,0.236-0.872,0.236c-0.292,0-0.585-0.115-0.896-0.238
		c-0.321-0.129-0.655-0.26-0.969-0.26V15.385L45.319,15.385z M48.853,13.225c-0.291,0.126-0.574,0.324-0.769,0.552
		c-0.184,0.211-0.375,0.527-0.46,0.87c0.303-0.104,0.576-0.298,0.786-0.551C48.626,13.834,48.778,13.531,48.853,13.225z
		 M66.515,7.133H57.14c-1.379,0-2.5-1.121-2.5-2.5c0-1.378,1.121-2.5,2.5-2.5h9.375c1.379,0,2.5,1.122,2.5,2.5
		C69.015,6.012,67.894,7.133,66.515,7.133z M57.14,3.133c-0.828,0-1.5,0.674-1.5,1.5c0,0.828,0.672,1.5,1.5,1.5h9.375
		c0.826,0,1.5-0.672,1.5-1.5c0-0.826-0.674-1.5-1.5-1.5H57.14z M28.772,6.475c-1.224,0-2.219-0.996-2.219-2.221
		s0.995-2.221,2.219-2.221c1.225,0,2.221,0.996,2.221,2.221S29.996,6.475,28.772,6.475z M28.772,3.033
		c-0.672,0-1.219,0.548-1.219,1.221s0.547,1.221,1.219,1.221c0.673,0,1.221-0.548,1.221-1.221S29.445,3.033,28.772,3.033z
		 M33.834,5.922c-0.92,0-1.668-0.748-1.668-1.668s0.748-1.668,1.668-1.668c0.921,0,1.67,0.748,1.67,1.668S34.755,5.922,33.834,5.922
		z M33.834,3.586c-0.368,0-0.668,0.299-0.668,0.668s0.3,0.668,0.668,0.668c0.369,0,0.67-0.299,0.67-0.668S34.203,3.586,33.834,3.586
		z"/>
</g>
</svg>