<?xml version="1.0" encoding="iso-8859-1"?>
<!-- Uploaded to: SVG Repo, www.svgrepo.com, Generator: SVG Repo Mixer Tools -->
<svg height="800px" width="800px" version="1.1" id="Layer_1" xmlns="http://www.w3.org/2000/svg" xmlns:xlink="http://www.w3.org/1999/xlink" 
	 viewBox="0 0 480 480" xml:space="preserve">
<g transform="translate(0 -540.36)">
	<path style="fill:#ECECEC;" d="M50.88,540.36h297.139c9.768,0,17.632,7.806,17.632,17.503v444.995
		c0,9.697-7.864,17.503-17.632,17.503H50.88c-9.768,0-17.632-7.806-17.632-17.503V557.863
		C33.248,548.166,41.112,540.36,50.88,540.36L50.88,540.36z"/>
	<path style="fill:#4F5666;" d="M49.911,577.195h299.076v403.34H49.911V577.195z"/>
	<g>
		
			<path shape-rendering="auto" image-rendering="auto" color-rendering="auto" color-interpolation="sRGB" style="fill:#B3B5B5;" d="
			M199.45,987.625c-6.829,0-12.404,5.573-12.404,12.402s5.575,12.404,12.404,12.404s12.402-5.575,12.402-12.404
			C211.852,993.198,206.279,987.625,199.45,987.625z M199.45,991.164c4.917,0,8.863,3.947,8.863,8.863
			c0,4.917-3.947,8.865-8.863,8.865s-8.865-3.948-8.865-8.865C190.585,995.111,194.533,991.164,199.45,991.164L199.45,991.164z"/>
		<path style="fill:#B3B5B5;" d="M202.409,560.433c0,1.635-1.325,2.96-2.96,2.96c-1.635,0-2.96-1.325-2.96-2.96
			c0-1.635,1.325-2.96,2.96-2.96C201.084,557.473,202.409,558.798,202.409,560.433z"/>
	</g>
	<g>
		<path style="fill:#575E6D;" d="M183.795,577.196l165.191,302.498V577.196H183.795z"/>
		<path style="fill:#575E6D;" d="M49.911,577.196v20.117l209.273,383.223h89.803v-5.816L131.903,577.196
			C131.903,577.196,49.911,577.196,49.911,577.196z"/>
	</g>
	<path style="fill:#3F4552;" d="M289.397,681.772c-11.572,0-20.887,9.314-20.887,20.885v277.879h11.186l152.887,17.447V702.657
		c0-11.57-9.315-20.885-20.887-20.885L289.397,681.772z"/>
	<g>
		<path style="fill:#CCACAB;" d="M282.049,754.252v21.585c0,1.151-0.926,2.077-2.077,2.077s-2.077-0.926-2.077-2.077v-21.585
			c0-1.151,0.926-2.077,2.077-2.077S282.049,753.101,282.049,754.252z"/>
		<path style="fill:#CCACAB;" d="M282.049,783.737v21.585c0,1.151-0.926,2.077-2.077,2.077s-2.077-0.926-2.077-2.077v-21.585
			c0-1.151,0.926-2.077,2.077-2.077S282.049,782.586,282.049,783.737z"/>
		<path style="fill:#CCACAB;" d="M282.337,723.3v13.521c0,1.151-0.926,2.077-2.077,2.077c-1.151,0-2.077-0.926-2.077-2.077V723.3
			c0-1.151,0.926-2.077,2.077-2.077C281.41,721.223,282.337,722.149,282.337,723.3z"/>
	</g>
	<g shape-rendering="auto" image-rendering="auto" color-rendering="auto" color-interpolation="sRGB">
		<path style="fill:#E5C9C6;" d="M302.075,680.281c-12.372,0-22.379,10.006-22.379,22.377v295.324
			c0,12.371,10.007,22.377,22.379,22.377h122.297c12.372,0,22.381-10.006,22.381-22.377V702.658
			c0-12.371-10.009-22.377-22.381-22.377L302.075,680.281L302.075,680.281z"/>
		<path style="fill:#F0F0F0;" d="M302.075,683.263h122.297c10.771,0,19.396,8.625,19.396,19.395v295.324
			c0,10.77-8.625,19.395-19.396,19.395H302.075c-10.771,0-19.396-8.625-19.396-19.395V702.658
			C282.678,691.888,291.303,683.263,302.075,683.263z"/>
		<path style="fill:#E5C9C6;" d="M362.46,983.885c-7.03,0-12.754,5.722-12.754,12.752c0,7.03,5.724,12.754,12.754,12.754
			c7.03,0,12.752-5.724,12.752-12.754C375.211,989.607,369.489,983.885,362.46,983.885L362.46,983.885z M362.46,986.121
			c5.821,0,10.514,4.695,10.514,10.516c0,5.821-4.693,10.516-10.514,10.516s-10.516-4.695-10.516-10.516
			C351.944,990.816,356.639,986.121,362.46,986.121z"/>
	</g>
	<path style="fill:#7E717A;" d="M290.863,719.554h143.191V977.4H290.863V719.554z"/>
	<g>
		<path style="fill:#303030;" d="M351.698,701.251h23.051c0.745,0,1.344,0.599,1.344,1.344c0,0.745-0.599,1.344-1.344,1.344h-23.051
			c-0.745,0-1.344-0.599-1.344-1.344C350.354,701.85,350.954,701.251,351.698,701.251z"/>
		<path style="fill:#303030;" d="M339.937,702.595c0,1.35-1.094,2.444-2.444,2.444l0,0c-1.35,0-2.444-1.094-2.444-2.444l0,0
			c0-1.35,1.094-2.444,2.444-2.444l0,0C338.843,700.151,339.937,701.245,339.937,702.595L339.937,702.595z"/>
		<path style="fill:#303030;" d="M364.812,691.171c0,0.877-0.711,1.588-1.588,1.588l0,0c-0.877,0-1.588-0.711-1.588-1.588l0,0
			c0-0.877,0.711-1.588,1.588-1.588l0,0C364.101,689.583,364.812,690.294,364.812,691.171L364.812,691.171z"/>
	</g>
	<path style="fill:#262626;" d="M339.204,702.595c0,0.945-0.766,1.71-1.71,1.71s-1.71-0.766-1.71-1.71
		c0-0.945,0.766-1.711,1.71-1.711h0C338.438,700.884,339.204,701.65,339.204,702.595
		C339.204,702.595,339.204,702.595,339.204,702.595z"/>
	<path style="fill:#273945;" d="M339.134,702.595c0,0.906-0.734,1.641-1.641,1.641l0,0c-0.906,0-1.641-0.734-1.641-1.641l0,0
		c0-0.906,0.734-1.641,1.641-1.641l0,0C338.399,700.954,339.134,701.689,339.134,702.595L339.134,702.595z"/>
	<g>
		<path style="fill:#847880;" d="M348.301,719.553l85.752,157.031V719.553H348.301z"/>
		<path style="fill:#847880;" d="M290.862,719.553v70.986l102.043,186.861h41.148v-37.715L313.842,719.553H290.862z"/>
	</g>
	<path style="fill:#BDBDBD;" d="M268.51,980.536v17.447c0,11.57,9.315,20.885,20.887,20.885h4.637
		c-8.39-3.226-14.338-11.35-14.338-20.885v-17.447H268.51z"/>
	<g>
		<path style="fill:#464B57;" d="M289.397,681.772c-11.572,0-20.887,9.314-20.887,20.885v29.668l11.186,20.484v-50.15
			c0-9.535,5.947-17.66,14.338-20.887H289.397z"/>
		<path style="fill:#464B57;" d="M268.51,827.35v153.186h11.186V847.835L268.51,827.35z"/>
	</g>
</g>
</svg>