<?xml version="1.0" ?>
<!-- Uploaded to: SVG Repo, www.svgrepo.com, Generator: SVG Repo Mixer Tools -->
<svg width="800px" height="800px" viewBox="0 -7.5 60 60" version="1.1" xmlns="http://www.w3.org/2000/svg" xmlns:xlink="http://www.w3.org/1999/xlink">
<title/>
<desc/>
<g fill="none" fill-rule="evenodd" id="Page-1" stroke="none" stroke-width="1">
<g fill="#000000" id="002---Laptop">
<path d="M59,35 L57,35 L57,3 C57,1.34314575 55.6568542,0 54,0 L6,0 C4.34314575,0 3,1.34314575 3,3 L3,35 L1,35 C0.44771525,35 6.76353751e-17,35.4477153 0,36 L0,40 C0.00330611633,42.7600532 2.23994685,44.9966939 5,45 L55,45 C57.7600532,44.9966939 59.9966939,42.7600532 60,40 L60,36 C60,35.4477153 59.5522847,35 59,35 Z M5,3 C5,2.44771525 5.44771525,2 6,2 L54,2 C54.5522847,2 55,2.44771525 55,3 L55,35 L5,35 L5,3 Z M58,40 C58,41.6568542 56.6568542,43 55,43 L5,43 C3.34314575,43 2,41.6568542 2,40 L2,37 L58,37 L58,40 Z" fill-rule="nonzero" id="Shape"/>
<path d="M7,39 L5,39 C4.44771525,39 4,39.4477153 4,40 C4,40.5522847 4.44771525,41 5,41 L7,41 C7.55228475,41 8,40.5522847 8,40 C8,39.4477153 7.55228475,39 7,39 Z" id="Path"/>
<path d="M24,39 L11,39 C10.4477153,39 10,39.4477153 10,40 C10,40.5522847 10.4477153,41 11,41 L24,41 C24.5522847,41 25,40.5522847 25,40 C25,39.4477153 24.5522847,39 24,39 Z" id="Path"/>
<path d="M8,5 C7.44771525,5 7,5.44771525 7,6 L7,8 C7,8.55228475 7.44771525,9 8,9 C8.55228475,9 9,8.55228475 9,8 L9,6 C9,5.44771525 8.55228475,5 8,5 Z" id="Path"/>
<path d="M8,12 C7.44771525,12 7,12.4477153 7,13 L7,31 C7,31.5522847 7.44771525,32 8,32 C8.55228475,32 9,31.5522847 9,31 L9,13 C9,12.4477153 8.55228475,12 8,12 Z" id="Path"/>
</g>
</g>
</svg>