<?xml version="1.0" encoding="utf-8"?>
<!-- Uploaded to: SVG Repo, www.svgrepo.com, Generator: SVG Repo Mixer Tools -->
<svg width="800px" height="800px" viewBox="0 -23.52 109.908 109.908" xmlns="http://www.w3.org/2000/svg">
  <g id="laptop_macbook_pro" data-name="laptop macbook pro" transform="translate(-649.324 -1577.937)">
    <rect id="Rectangle_2" data-name="Rectangle 2" width="83.969" height="53.184" transform="translate(662.292 1581.085)" fill="#576d78"/>
    <path id="Path_7" data-name="Path 7" d="M746.076,1577.937h-83.6a2.252,2.252,0,0,0-2.24,2.244v56.543h88.076v-56.543A2.245,2.245,0,0,0,746.076,1577.937Zm.186,56.332h-83.97v-53.184h83.97Z" fill="#163844"/>
    <g id="Group_2" data-name="Group 2">
      <path id="Path_8" data-name="Path 8" d="M759.232,1639.962a.84.84,0,0,1-.845.84H650.162a.837.837,0,0,1-.838-.84v-2.4a.837.837,0,0,1,.838-.836H758.387a.84.84,0,0,1,.845.836Z" fill="#e4e7e7"/>
    </g>
    <path id="Path_9" data-name="Path 9" d="M704.825,1579.505a.548.548,0,1,1-.548-.553A.549.549,0,0,1,704.825,1579.505Z" fill="#fbfbfb"/>
    <path id="Path_10" data-name="Path 10" d="M695.832,1636.724v.652a.841.841,0,0,0,.84.836h15.21a.843.843,0,0,0,.838-.836v-.652Z" fill="#c9d1d1"/>
  </g>
</svg>