<?xml version="1.0" encoding="iso-8859-1"?>
<!-- Uploaded to: SVG Repo, www.svgrepo.com, Generator: SVG Repo Mixer Tools -->
<!DOCTYPE svg PUBLIC "-//W3C//DTD SVG 1.1//EN" "http://www.w3.org/Graphics/SVG/1.1/DTD/svg11.dtd">
<svg fill="#000000" version="1.1" id="Capa_1" xmlns="http://www.w3.org/2000/svg" xmlns:xlink="http://www.w3.org/1999/xlink" 
	 width="800px" height="800px" viewBox="0 0 95.683 95.684"
	 xml:space="preserve">
<g>
	<path d="M89.83,95.684H5.854c-1.937,0-3.512-1.574-3.512-3.51V3.512C2.341,1.575,3.917,0,5.854,0H89.83
		c1.938,0,3.513,1.575,3.513,3.512v88.662C93.341,94.109,91.766,95.684,89.83,95.684z M82.908,94.684h6.922
		c1.385,0,2.512-1.126,2.512-2.51V3.512C92.341,2.127,91.214,1,89.83,1h-6.922c-0.334,2.933-2.821,5.188-5.791,5.188h-58.55
		c-2.97,0-5.457-2.255-5.791-5.188H5.854C4.468,1,3.341,2.127,3.341,3.512v88.662c0,1.384,1.127,2.51,2.512,2.51h6.922
		c0.334-2.932,2.821-5.188,5.791-5.188h58.55C80.086,89.496,82.574,91.752,82.908,94.684z M13.809,94.516h68.064
		c-0.397-2.293-2.394-4.02-4.757-4.02h-58.55C16.202,90.496,14.207,92.223,13.809,94.516z M13.809,1.17
		c0.397,2.291,2.394,4.018,4.757,4.018h58.55c2.363,0,4.359-1.727,4.758-4.018H13.809z M45.341,57.076
		c-1.511,0-2.52-1.461-3.187-2.426c-1.723-2.486-2.703-6.604-1.129-9.336c0.854-1.48,2.401-2.416,4.04-2.441h0.05
		c0.719,0,1.396,0.269,1.94,0.484c0.104,0.041,0.206,0.082,0.304,0.119l-0.037-0.277c-0.161-1.209,0.436-2.393,1.047-3.097
		c0.711-0.837,1.916-1.453,2.928-1.495l0.467-0.02l0.052,0.465c0.117,1.082-0.254,2.234-1.021,3.163
		c-0.236,0.285-0.511,0.535-0.804,0.743c0.426-0.109,0.886-0.172,1.356-0.124c0.669,0.027,2.416,0.275,3.56,1.946l0.287,0.421
		l-0.426,0.28c-0.412,0.256-1.678,1.18-1.66,2.902c0.02,2.207,1.823,2.992,2.029,3.075l0.439,0.177l-0.149,0.449
		c-0.133,0.421-0.517,1.499-1.271,2.605c-0.713,1.041-1.602,2.336-3.078,2.362h-0.002c-0.709,0-1.16-0.194-1.56-0.367
		c-0.404-0.176-0.753-0.325-1.334-0.325c-0.613,0-1,0.164-1.408,0.338c-0.388,0.166-0.828,0.354-1.434,0.377
		C45.343,57.076,45.342,57.076,45.341,57.076z M45.115,43.373l-0.033,0.5c-1.29,0.02-2.512,0.764-3.189,1.938
		c-1.455,2.524-0.242,6.355,1.084,8.27c0.698,1.011,1.449,1.997,2.286,1.997c0.463-0.019,0.769-0.148,1.122-0.299
		c0.46-0.195,0.982-0.418,1.8-0.418c0.788,0,1.289,0.217,1.731,0.407c0.368,0.16,0.661,0.286,1.103,0.286
		c0.936-0.018,1.547-0.811,2.313-1.929c0.509-0.745,0.829-1.476,1.008-1.949c-0.761-0.433-2.212-1.547-2.231-3.783
		c-0.018-1.773,0.998-2.889,1.67-3.433c-0.871-0.953-2.013-1.109-2.5-1.13c-0.104-0.01-0.181-0.014-0.256-0.014
		c-0.637,0-1.273,0.252-1.836,0.473c-0.465,0.184-0.867,0.342-1.23,0.342c-0.395,0-0.818-0.168-1.268-0.346
		c-0.489-0.193-1.044-0.414-1.572-0.414L45.115,43.373L45.115,43.373z M50.824,39.69c-0.619,0.169-1.275,0.571-1.695,1.064
		c-0.373,0.431-0.768,1.132-0.825,1.861c0.615-0.101,1.265-0.485,1.722-1.037C50.486,41.022,50.767,40.344,50.824,39.69z"/>
</g>
</svg>